1.8Hz3min_grf.mot
version=1
nRows=17
nColumns 19
inDegrees=yes
endheader
time	1_ground_force_vx	1_ground_force_vy	1_ground_force_vz	1_ground_force_px	1_ground_force_py	1_ground_force_pz	1_ground_torque_x	1_ground_torque_y	1_ground_torque_z	2_ground_force_vx	2_ground_force_vy	2_ground_force_vz	2_ground_force_px	2_ground_force_py	2_ground_force_pz	2_ground_torque_x	2_ground_torque_y	2_ground_torque_z
            0.005000	           -0.048597	           10.096442	           -0.323448	           -0.238989	            0.005743	           -0.293537	            0.002579	           -0.535821	            0.017165	            0.131704	            2.396109	           -0.460799	           -0.200109	            0.005755	           -0.696007	           -0.412173	           -0.340781	           -0.283791
            0.005500	           -0.094763	            9.376157	           -0.509849	           -0.233013	            0.005581	           -0.255695	            0.411547	           -0.498802	           -0.082596	           -0.060245	            3.683634	           -0.221479	           -0.200109	            0.005755	           -0.696007	           -0.449752	           -0.340849	           -0.302626
            0.006000	           -0.048791	            9.916569	           -0.415932	           -0.233013	            0.005581	           -0.255695	            0.445029	           -0.526824	           -0.005671	           -0.203453	            4.419720	           -0.218791	           -0.200109	            0.005755	           -0.696007	           -0.431059	           -0.330858	           -0.434551
            0.006500	           -0.231690	            9.194881	           -0.281001	           -0.233013	            0.005581	           -0.255695	            0.495772	           -0.461948	           -0.069706	            0.082942	            2.947716	           -0.271096	           -0.200109	            0.005755	           -0.696007	           -0.412335	           -0.302768	           -0.340207
            0.007000	           -0.140265	            9.375558	           -0.372168	           -0.233013	            0.005581	           -0.255695	            0.311954	           -0.489836	           -0.027870	           -0.010840	            2.948047	           -0.458768	           -0.200109	            0.005755	           -0.696007	           -0.525115	           -0.284270	           -0.340092
            0.007500	           -0.232080	            8.835136	           -0.465971	           -0.233013	            0.005581	           -0.255695	            0.447554	           -0.452801	           -0.050736	            0.083607	            2.763567	           -0.271753	           -0.200109	            0.005755	           -0.696007	           -0.487341	           -0.331667	           -0.264876
            0.008000	           -0.415290	            9.195239	           -0.372258	           -0.233013	            0.005581	           -0.255695	            0.499443	           -0.535579	           -0.171841	            0.078893	            4.053108	           -0.407937	           -0.200109	            0.005755	           -0.696007	           -0.524851	           -0.350641	           -0.283777
            0.008500	           -0.231951	            9.375540	           -0.371940	           -0.233013	            0.005581	           -0.255695	            0.405668	           -0.508105	           -0.088485	            0.035449	            3.131528	           -0.223490	           -0.200109	            0.005755	           -0.696007	           -0.468564	           -0.331532	           -0.283734
            0.009000	           -0.185943	            8.474221	           -0.375919	           -0.233013	            0.005581	           -0.255695	            0.387720	           -0.545464	            0.007377	            0.361404	            3.685157	           -0.221659	           -0.200109	            0.005755	           -0.696007	           -0.430950	           -0.350100	           -0.340368
            0.009500	           -0.232017	            9.736072	           -0.370394	           -0.233013	            0.005581	           -0.255695	            0.424727	           -0.536718	            0.118111	            0.034784	            3.315676	           -0.222833	           -0.200109	            0.005755	           -0.696007	           -0.431102	           -0.312154	           -0.377933
            0.010000	           -0.461070	           10.096165	           -0.276568	           -0.243939	            0.005709	           -0.285949	            0.020754	           -0.454446	            0.012449	           -0.336028	            2.209433	           -0.226616	           -0.200109	            0.005755	           -0.696007	           -0.487382	           -0.331331	           -0.359127
            0.010500	           -0.369267	            8.834520	           -0.328062	           -0.233013	            0.005581	           -0.255695	            0.422758	           -0.434136	           -0.112853	           -0.059039	            3.316342	           -0.504362	           -0.200109	            0.005755	           -0.696007	           -0.449770	           -0.331531	           -0.264892
            0.011000	           -0.140558	            9.736482	           -0.462334	           -0.233013	            0.005581	           -0.255695	            0.296857	           -0.471355	           -0.027766	            0.315842	            3.317026	           -0.316809	           -0.200109	            0.005755	           -0.696007	           -0.431018	           -0.331194	           -0.340300
            0.011500	           -0.460938	            9.375103	           -0.279660	           -0.233013	            0.005581	           -0.255695	            0.308008	           -0.480738	           -0.041505	            0.033516	            3.683470	           -0.080735	           -0.200109	            0.005755	           -0.696007	           -0.449837	           -0.321809	           -0.340259
            0.012000	           -0.552771	            9.555547	           -0.324515	           -0.233013	            0.005581	           -0.255695	            0.403603	           -0.471358	           -0.083214	           -0.197431	            2.762050	           -0.130849	           -0.200109	            0.005755	           -0.696007	           -0.412256	           -0.340109	           -0.472294
            0.012500	           -0.048887	            9.195900	           -0.510736	           -0.233013	            0.005581	           -0.255695	            0.411586	           -0.563324	           -0.118507	           -0.107136	            3.683800	           -0.315316	           -0.200109	            0.005755	           -0.696007	           -0.449651	           -0.360024	           -0.227292
            0.013000	           -0.185341	            8.292972	           -0.147412	           -0.233013	            0.005581	           -0.255695	            0.396880	           -0.554778	            0.026118	           -0.151348	            2.947205	           -0.364852	           -0.200109	            0.005755	           -0.696007	           -0.430847	           -0.378458	           -0.340469
